<?xml version="1.0" encoding="UTF-8"?>
<svg width="579px" height="455px" viewBox="0 0 579 455" version="1.1" xmlns="http://www.w3.org/2000/svg" xmlns:xlink="http://www.w3.org/1999/xlink">
    <!-- Generator: Sketch 64 (93537) - https://sketch.com -->
    <title>请输入关键词搜索@3x</title>
    <desc>Created with Sketch.</desc>
    <defs>
        <linearGradient x1="50%" y1="0%" x2="50%" y2="100%" id="linearGradient-1">
            <stop stop-color="#F0F1FF" offset="0%"></stop>
            <stop stop-color="#F3F9FF" offset="100%"></stop>
        </linearGradient>
    </defs>
    <g id="web组件设计" stroke="none" stroke-width="1" fill="none" fill-rule="evenodd">
        <g id="插画组件" transform="translate(-1961.000000, -7981.000000)">
            <g id="请输入关键词搜索" transform="translate(1931.000000, 7892.000000)">
                <rect id="矩形备份-8" fill-opacity="0" fill="#EFEFEF" x="0" y="0" width="640" height="640"></rect>
                <g id="编组-9" transform="translate(30.000000, 89.000000)">
                    <g id="cog_3_" fill-rule="nonzero">
                        <path d="M251.431734,154.714782 C244.976386,150.227832 241.126713,142.864711 241.126713,135.00338 C241.125184,127.142048 244.971801,119.772814 251.427149,115.285864 C266.682187,104.684376 273.695348,93.457832 268.071371,79.8793074 C262.447394,66.302311 249.551981,63.3222184 231.270998,66.611018 C223.533445,68.0032562 215.606388,65.5183174 210.046597,59.9600626 C204.486807,54.4018078 201.995752,46.4717049 203.387992,38.7341619 C206.678324,20.4501474 203.699756,7.5532235 190.121213,1.92925383 C176.541142,-3.69624409 165.314583,3.31843547 154.71308,18.5734532 C150.226125,25.0303206 142.859937,28.8815172 134.997067,28.8799889 C127.134196,28.8784607 119.772594,25.0257358 115.28411,18.5688684 C104.684135,3.31690721 93.4591047,-3.69318759 79.8805619,1.93078208 C66.3035474,7.55475175 63.3234507,20.4501474 66.6122548,38.7295771 C68.0044948,46.4671202 65.5195527,54.3956948 59.9612905,59.9539496 C54.4030282,65.5122044 46.4729147,68.0063127 38.7353613,66.6125463 C20.4513224,63.3222184 7.55438115,66.3007828 1.92887569,79.8808356 C-3.69510151,93.4593602 3.31805919,104.685904 18.5730974,115.287392 C25.0299734,119.774342 28.8811751,127.14052 28.8796469,135.00338 C28.8781186,142.866239 25.0253886,150.227832 18.5685126,154.71631 C3.31653094,165.316271 -3.69510151,176.542814 1.92887569,190.119811 C7.5528529,203.698335 20.4513224,206.678428 38.733833,203.386572 C46.4729147,201.992805 54.4030282,204.479272 59.9628187,210.040584 C65.5226092,215.601895 68.0029666,223.531998 66.6107266,231.271069 C63.3219225,249.552027 66.3020191,262.447423 79.8790336,268.071392 C93.4575764,273.695362 104.684135,266.682211 115.285638,251.425665 C119.772594,244.968797 127.138781,241.117601 135.001652,241.119129 C142.864522,241.120657 150.227653,244.973382 154.714609,251.43025 C165.314583,266.682211 176.541142,273.693834 190.118156,268.069864 C203.695171,262.445895 206.675268,249.550499 203.386463,231.269541 C201.994223,223.531998 204.479166,215.603423 210.037428,210.04364 C215.59569,204.483857 223.525804,201.991277 231.263357,203.385043 C249.547396,206.675371 262.444337,203.696807 268.069843,190.118282 C273.695348,176.541286 266.683716,165.314742 251.431734,154.714782 Z" id="Path" fill="#F3F9FF"></path>
                        <ellipse id="Oval" fill="#DCEEFD" cx="136.067194" cy="136.600791" rx="70.9683794" ry="72.56917"></ellipse>
                        <path d="M205.968379,137.684347 C205.968379,177.120971 173.91939,209.16996 134.482766,209.16996 C113.275549,209.16996 94.0934849,199.877013 81.1067194,185.103259 C93.6171569,196.421359 110.296223,203.212826 128.525631,203.212826 C167.962256,203.212826 200.011245,171.163837 200.011245,131.727212 C200.011245,113.497804 193.219778,96.8187379 181.901678,84.3083004 C196.675432,97.2950659 205.968379,116.47713 205.968379,137.684347 Z" id="Path" fill="#FFFFFF"></path>
                        <path d="M188.893281,88.0983225 C176.382843,76.7802221 159.703777,69.988755 141.474369,69.988755 C102.037744,69.988755 69.988755,102.037744 69.988755,141.474369 C69.988755,159.70226 76.7802221,176.382843 88.0983225,188.893281 C73.3245683,175.906515 64.0316206,156.724451 64.0316206,135.517234 C64.0316206,96.0806096 96.0806096,64.0316206 135.517234,64.0316206 C156.724451,64.0316206 175.906515,73.3245683 188.893281,88.0983225 Z" id="Path" fill="#D0E7FE"></path>
                    </g>
                    <g id="plant_25_" transform="translate(350.000000, 147.000000)" fill-rule="nonzero">
                        <g id="Group" transform="translate(0.000000, 76.909091)">
                            <path d="M8.46151358,154.915723 C2.46116543,140.184678 -6.48822222,119.312764 11.8045407,106.988799 C30.0973037,94.6648327 13.3972568,87.3661733 12.8037605,69.5031091 C12.2102642,51.640045 30.8819259,47.0493501 30.323637,38.578823 C29.7653481,30.1082959 28.8382198,15.130912 30.5617062,8.74018611 C33.4453605,-1.95442618 55.0308543,-6.81081478 57.2338321,23.3023137 C58.6186568,42.2246336 60.4779432,53.6494637 70.0945951,67.1470568 C79.7112469,80.6446499 58.5298,94.9146903 58.9204346,105.78174 C59.3110691,116.648789 69.7492272,115.03879 68.6075012,138.066166 C67.4657753,161.093542 53.0441506,178.507918 39.3317037,177.482094 C30.0185062,176.781789 13.9387802,168.362289 8.46151358,154.915723 Z" id="Path" fill="#71E5CB"></path>
                            <path d="M54.708958,77.060424 C54.2965284,76.843998 53.7918889,77.0181945 53.582321,77.449287 C53.4213728,77.7836036 49.6122667,85.4904812 43.3989975,82.9725492 C44.135,77.8698221 44.4669556,73.0908542 44.1148815,68.77817 C44.1232642,68.7482574 44.1417062,68.7236236 44.1467358,68.6919515 C44.1852963,68.4913615 44.1433827,68.2978098 44.0612321,68.1288919 C43.9857877,67.3652424 43.8935778,66.6121503 43.7711901,65.8784133 C41.885079,54.6488944 43.1525457,40.1149199 43.9086667,31.4332454 C44.3512741,26.3674691 44.5507827,23.8864879 44.2959481,22.83603 C44.1819432,22.362708 43.7175407,22.0758996 43.2782864,22.2008284 C42.8289728,22.318719 42.5573728,22.7990792 42.6730543,23.268882 C42.8675333,24.0730014 42.5758148,27.4091292 42.2405062,31.2713658 C41.4760025,40.0427778 40.1968,54.722796 42.1214716,66.1845769 C42.1835037,66.5505656 42.2254173,66.9288713 42.274037,67.3036578 C39.5915679,66.4203581 33.1989086,63.6490494 31.0780815,56.7744442 C30.9372519,56.3134392 30.4661432,56.0600624 30.0218593,56.2096251 C29.5809284,56.3591878 29.3411827,56.855384 29.4836889,57.3181486 C32.0705951,65.7024572 40.0576469,68.5300718 42.468516,69.2057433 C43.1508691,78.4135265 40.5991704,90.0037554 37.9016123,102.21159 C35.7606667,111.899734 33.5459531,121.916915 32.823363,131.388632 C32.5064963,135.537677 32.6523556,140.409902 33.0798741,145.607645 C28.5096173,143.253353 16.0512247,135.945895 15.7226222,126.06596 C15.7075333,125.582081 15.2984568,125.246004 14.8558494,125.217851 C14.3931235,125.235447 14.0309901,125.641906 14.0477556,126.129304 C14.4383901,137.886691 29.4602173,145.83111 33.2508815,147.650496 C34.4881704,160.708199 37.381884,175.53602 39.5228296,186.513921 C41.0468074,194.319334 42.3628938,201.060213 42.098,202.379884 C42.002437,202.856725 42.292479,203.323008 42.7451457,203.423303 C42.8038247,203.43738 42.8608272,203.442659 42.9195062,203.442659 C43.3067877,203.442659 43.6555086,203.159369 43.7393358,202.744113 C44.0612321,201.141153 43.0787778,195.957486 41.1675185,186.162009 C39.0533975,175.330151 36.2066272,160.727554 34.959279,147.868681 C35.0498123,147.784222 35.1436988,147.698004 35.1939951,147.571315 C35.3582963,147.161338 35.190642,146.707371 34.8352148,146.487426 C34.375842,141.312557 34.1998049,136.468485 34.456316,132.308883 C37.2980568,132.11885 46.8778247,130.788622 49.4747901,121.501658 C49.6055605,121.035375 49.3507259,120.546217 48.906442,120.41073 C48.462158,120.277004 47.9977556,120.540938 47.8653086,121.007222 C45.591916,129.139913 37.3584123,130.376884 34.588763,130.552841 C35.3733852,121.49638 37.4824765,111.903253 39.536242,102.611011 C40.9009481,96.4331916 42.2287704,90.4137331 43.1307506,84.7479464 C44.0662617,85.0857821 44.9665654,85.2476617 45.8249556,85.2476617 C50.3935358,85.2476617 53.7650642,80.9860048 55.0811506,78.2481277 C55.2873654,77.8082375 55.1213877,77.2786096 54.708958,77.060424 Z" id="Path" fill="#39B499"></path>
                        </g>
                        <g id="Group" transform="translate(80.294118, 0.000000)">
                            <path d="M90.1839133,217.369125 C98.6108399,196.6668 111.181579,167.333512 85.4896067,150.013425 C59.7959562,132.691575 83.2523844,122.435588 84.0865175,97.3305375 C84.9206506,72.2254875 58.6932892,65.772975 59.4787506,53.86905 C60.2625337,41.965125 61.5649226,20.9155875 59.1447617,11.9338875 C55.0932578,-3.0967125 24.7757908,-9.9211125 21.682617,32.4000375 C19.7391036,58.9926375 17.125934,75.0490125 3.62036173,94.0188 C-9.88521051,112.988587 19.8649788,133.044075 19.3144845,148.314375 C18.7639902,163.584675 4.10540093,161.323387 5.7082121,193.686412 C7.31102327,226.049437 27.5668641,250.523512 46.8274516,249.080025 C59.9067264,248.100075 82.4904197,236.268412 90.1839133,217.369125 Z" id="Path" fill="#55CEB3"></path>
                            <path d="M82.0025838,176.893313 C82.0188072,176.406863 81.6562865,175.997963 81.1930657,175.980338 C80.7483066,176.020875 80.3421492,176.345175 80.3253658,176.829863 C79.842005,191.333475 61.1302335,201.896138 55.1922797,204.888863 C55.8535442,197.445825 56.0935463,190.402875 55.6303255,184.327538 C54.6182887,171.041813 51.5100098,156.9753 48.5057879,143.372325 C44.6858944,126.080438 41.075793,109.668038 42.1046132,96.630825 C45.1155485,95.8236 56.6641806,92.0025 60.3363805,80.09505 C60.479039,79.6315125 60.2373586,79.1344875 59.7976345,78.984675 C59.3562321,78.8331 58.8829412,79.090425 58.7402826,79.5504375 C55.578297,89.7976125 45.7432463,93.6715875 42.2825168,94.7396625 C42.368112,94.0188 42.4570638,93.3014625 42.5745474,92.6035125 C45.2699555,76.5436125 43.475814,55.94175 42.4033571,43.6342125 C41.9082478,37.9448625 41.5171955,33.455775 41.804191,32.2660875 C41.9183179,31.7937375 41.6464274,31.3143375 41.1983116,31.19625 C40.7552308,31.0711125 40.29201,31.3601625 40.1795614,31.8325125 C39.8355025,33.2478 40.1342464,36.9085125 40.7334124,43.7946 C41.7974776,56.015775 43.5798708,76.4695875 40.9230644,92.2986 C40.7501958,93.3279 40.6226422,94.388925 40.516907,95.46405 C40.4011018,95.650875 40.3507518,95.883525 40.3960668,96.1197 C40.4061369,96.1743375 40.4329902,96.2184 40.4514519,96.26775 C39.942916,102.40125 40.4296336,109.2186 41.4953771,116.506538 C41.4869854,116.510063 41.4785937,116.5083 41.4718804,116.511825 C32.3350176,120.447488 26.742801,109.142813 26.5095123,108.66165 C26.2997202,108.226313 25.7928627,108.051825 25.3816703,108.272138 C24.9671212,108.49245 24.8026442,109.022963 25.0107579,109.456538 C25.066143,109.569338 29.7604497,119.107988 37.6855537,119.107988 C38.9610893,119.107988 40.3255767,118.845375 41.7639109,118.2708 C43.0276982,126.344813 44.9208615,134.94405 46.8710883,143.774175 C49.7863585,156.973538 52.7838671,170.606475 53.8630373,183.470963 C50.3804895,183.240075 37.831569,181.67145 34.5168548,169.8063 C34.3876229,169.341 33.9210454,169.0731 33.4746079,169.208813 C33.0281705,169.344525 32.7747417,169.8345 32.9056519,170.301563 C36.6013484,183.522075 50.5416098,185.073075 53.9956259,185.25285 C54.3950699,191.326425 54.1282145,198.327075 53.4333832,205.736625 C53.4266699,205.74015 53.4048515,205.748963 53.4014949,205.750725 C52.9751974,205.93755 52.7721187,206.4522 52.9500224,206.901638 C53.0205125,207.077888 53.1396744,207.211838 53.282333,207.30525 C51.5150448,224.840363 47.5239611,244.354763 44.5566625,258.8478 C41.8981778,271.835663 40.5303337,278.712938 40.9667012,280.894913 C41.050618,281.310863 41.3980336,281.594625 41.7874076,281.594625 C41.8444711,281.594625 41.9032128,281.589338 41.9619546,281.575238 C42.4151054,281.474775 42.7054576,281.007713 42.6097924,280.531838 C42.2254534,278.616 44.0665883,269.625488 46.1980754,259.217925 C49.2056541,244.534538 53.2605146,224.715225 55.0110194,206.9316 C59.9302231,204.596288 81.4515295,193.4379 82.0025838,176.893313 Z" id="Path" fill="#39B499"></path>
                        </g>
                    </g>
                    <g id="梯子2" transform="translate(121.000000, 166.000000)" fill="#143E81" fill-rule="nonzero">
                        <path d="M4.62734686,6.40780358e-13 L4.627,19.456 L56.372,19.456 L56.3726531,6.40780358e-13 L61,6.40780358e-13 L61,282 L56.3726531,282 L56.372,248.413 L4.627,248.413 L4.62734686,282 L1.02140518e-13,282 L1.02140518e-13,6.40780358e-13 L4.62734686,6.40780358e-13 Z M56.372,243.721 L56.372,198.473 L4.627,198.473 L4.627,243.721 L56.372,243.721 Z M56.372,193.781 L56.372,154.842 L4.627,154.842 L4.627,193.781 L56.372,193.781 Z M56.372,150.149 L56.372,110.539 L4.627,110.539 L4.627,150.149 L56.372,150.149 Z M56.372,105.846 L56.372,61.859 L4.627,61.859 L4.627,105.846 L56.372,105.846 Z M56.372,57.166 L56.372,24.149 L4.627,24.149 L4.627,57.166 L56.372,57.166 Z" id="形状结合"></path>
                    </g>
                    <g id="放大镜" transform="translate(344.509334, 208.192012) rotate(7.000000) translate(-344.509334, -208.192012) translate(167.009334, 31.692012)">
                        <path d="M278.386906,190.237979 C283.603203,190.23443 287.964789,194.202282 288.453306,199.395655 L300.893623,331.647372 C302.15105,345.014948 292.333834,356.870856 278.966258,358.128283 C278.214914,358.198958 277.460687,358.23461 276.706026,358.235124 C263.561835,358.244067 252.899112,347.595845 252.890169,334.451653 C252.889552,333.545027 252.940741,332.639107 253.043486,331.738321 L268.139413,199.389337 C268.7338,194.17823 273.142012,190.241548 278.386906,190.237979 Z" id="矩形" fill="#3E65A3" transform="translate(276.706026, 274.242499) rotate(-45.000000) translate(-276.706026, -274.242499) "></path>
                        <circle id="椭圆形" fill="url(#linearGradient-1)" fill-rule="nonzero" cx="129.5" cy="129.5" r="129.5"></circle>
                        <circle id="椭圆形备份-31" stroke="#DCEEFD" stroke-width="8" fill-rule="nonzero" cx="128.5" cy="129.5" r="122.5"></circle>
                        <circle id="椭圆形备份-30" stroke="#143E81" stroke-width="16" fill-rule="nonzero" cx="129.5" cy="129.5" r="129.5"></circle>
                        <path d="M50.4820434,71.8237572 C55.5350219,63.6798136 63.0657708,66.4242454 65.348721,71.8299882 C67.6316711,77.2357311 60.4295048,82.3115308 60.2195393,97.6629398 C60.0095739,113.014349 68.9984719,116.883348 65.3708944,124.790832 C61.7433169,132.698316 53.9600031,129.900926 50.5042169,124.784601 C47.0484307,119.668276 43.721404,110.07142 43.7172818,99.2725192 C43.7131744,88.4736185 45.429065,79.9677008 50.4820434,71.8237572 Z" id="矩形" fill="#FFFFFF" transform="translate(54.975827, 98.210701) rotate(19.000000) translate(-54.975827, -98.210701) "></path>
                    </g>
                    <g id="woman_4_" transform="translate(496.000000, 343.500000) scale(-1, 1) translate(-496.000000, -343.500000) translate(412.000000, 224.000000)">
                        <path d="M86.6751592,70.7325116 C86.6751592,70.7325116 88.7847726,65.7596558 89.3278571,64.7857757 C89.8709416,63.8118956 87.5683903,56.0768606 88.6894946,55.9181773 C89.8105989,55.759494 90.7689366,60.6491188 90.7689366,60.6491188 C90.7689366,60.6491188 93.4049609,52.5827157 94.4839841,52.243569 C95.5622133,51.9052001 98.8254842,57.4264469 98.409437,60.1684016 C97.9933898,62.9103564 94.6261071,67.4009393 93.5756673,68.6789625 C92.5252275,69.9569857 90.7840223,74.6412556 90.7840223,74.6412556 L86.6751592,70.7325116 Z" id="Path" fill="#FECCA9" fill-rule="nonzero"></path>
                        <path d="M87.6420717,67.1704036 C87.6420717,67.1704036 74.4011756,97.6213586 64.2038217,106.553418 L76.771943,108.793722 C76.771943,108.793722 88.2709868,87.1337732 93.0955414,69.9583724 L87.6420717,67.1704036 Z" id="Path" fill="#096DD9" fill-rule="nonzero"></path>
                        <path d="M69.5541401,84.7193776 C69.5541401,83.2538204 65.9399538,79.4580194 64.598475,79.539133 L65.1111379,78.9710011 C62.4871287,78.6032337 57.1510367,79.8564998 55.3355792,84.1177195 C53.2859205,88.9309841 55.9338278,102.102886 56.7025494,103.116412 C57.4712709,104.129938 67.0376723,102.610043 66.8066575,102.102886 C66.5756428,101.596517 64.4750015,95.8547771 64.3045286,94.9255146 C64.1340556,93.9962521 69.4290735,92.9835135 69.3111763,89.3523023 C69.2769224,88.3033382 69.0690091,88.0694476 68.8913667,87.0204835 C68.6906228,85.8423676 69.5541401,85.4423123 69.5541401,84.7193776 Z" id="Path" fill="#FECCA9" fill-rule="nonzero"></path>
                        <g id="仪表板" transform="translate(119.388055, 49.643057) rotate(-41.000000) translate(-119.388055, -49.643057) translate(88.888055, 11.643057)" fill-rule="nonzero">
                            <path d="M53.1540229,3.15931319 L7.59370701,3.15931319 C3.39959236,3.15931319 -5.1322004e-13,6.54600482 -5.1322004e-13,10.7242037 L-5.1322004e-13,67.4584841 C-5.1322004e-13,71.636683 3.39959236,75.0233746 7.59370701,75.0233746 L53.1540229,75.0233746 C57.3481376,75.0233746 60.7477299,71.636683 60.7477299,67.4584841 L60.7477299,10.7242037 C60.7467669,6.54600482 57.3471745,3.15931319 53.1540229,3.15931319 Z" id="Path" fill="#EC9338"></path>
                            <path d="M53.1540229,1.06167193e-13 L7.59370701,1.06167193e-13 C3.39959236,1.06167193e-13 -5.1322004e-13,3.38669163 -5.1322004e-13,7.56489052 L-5.1322004e-13,64.2991709 C-5.1322004e-13,68.4773698 3.39959236,71.8640614 7.59370701,71.8640614 L53.1540229,71.8640614 C57.3481376,71.8640614 60.7477299,68.4773698 60.7477299,64.2991709 L60.7477299,7.56489052 C60.7467669,3.38669163 57.3471745,1.06167193e-13 53.1540229,1.06167193e-13 Z" id="Path" fill="#F7A959"></path>
                            <path d="M30.3729019,45.3883837 C19.9063949,45.3883837 11.3891159,36.9043854 11.3891159,26.4766371 C11.3891159,16.0498482 19.9054318,7.56489052 30.3729019,7.56489052 C40.8394089,7.56489052 49.3566879,16.0488888 49.3566879,26.4766371 C49.3566879,36.903426 40.840372,45.3883837 30.3729019,45.3883837 Z M30.3729019,11.3468561 C21.9971924,11.3468561 15.186451,18.1317522 15.186451,26.4756777 C15.186451,34.8196032 21.9971924,41.6044993 30.3729019,41.6044993 C38.7486115,41.6044993 45.5593529,34.8196032 45.5593529,26.4756777 C45.5593529,18.1317522 38.7486115,11.3468561 30.3729019,11.3468561 Z" id="Shape" fill="#FFF4E8"></path>
                            <path d="M30.3729019,45.3883837 C19.9063949,45.3883837 11.3891159,36.9043854 11.3891159,26.4766371 C11.3891159,16.0498482 19.9054318,7.56489052 30.3729019,7.56489052 C31.4226344,7.56489052 32.2710879,8.41108372 32.2710879,9.45587329 C32.2710879,10.5006629 31.4216713,11.3468561 30.3729019,11.3468561 C21.9971924,11.3468561 15.186451,18.1317522 15.186451,26.4756777 C15.186451,34.8196032 21.9971924,41.6044993 30.3729019,41.6044993 C38.7486115,41.6044993 45.5593529,34.8196032 45.5593529,26.4756777 C45.5593529,25.4299287 46.4087694,24.5846949 47.4575389,24.5846949 C48.5063083,24.5846949 49.3557248,25.4308881 49.3557248,26.4756777 C49.3566879,36.903426 40.840372,45.3883837 30.3729019,45.3883837 Z" id="Path" fill="#FFFFFF"></path>
                            <ellipse id="Oval" fill="#F09A5E" cx="47.4585019" cy="26.4766371" rx="3.79637197" ry="3.78196556"></ellipse>
                            <path d="M37.9666089,52.9523148 L22.780158,52.9523148 C21.7362038,52.9523148 20.881972,53.803305 20.881972,54.8432976 C20.881972,55.8832901 21.7362038,56.7342804 22.780158,56.7342804 L37.9666089,56.7342804 C39.0105631,56.7342804 39.8647949,55.8832901 39.8647949,54.8432976 C39.8647949,53.803305 39.0105631,52.9523148 37.9666089,52.9523148 Z" id="Path" fill="#F09A5E"></path>
                            <path d="M37.9666089,60.5172053 L22.780158,60.5172053 C21.7362038,60.5172053 20.881972,61.3681955 20.881972,62.4081881 C20.881972,63.4481807 21.7362038,64.2991709 22.780158,64.2991709 L37.9666089,64.2991709 C39.0105631,64.2991709 39.8647949,63.4481807 39.8647949,62.4081881 C39.8647949,61.3681955 39.0105631,60.5172053 37.9666089,60.5172053 Z" id="Path" fill="#FECCA9"></path>
                        </g>
                        <path d="M102.726115,83.0196083 C102.726115,83.0196083 105.655795,78.6725891 106.387635,77.8576185 C107.119475,77.0426479 107.577745,69.3447694 108.675892,69.4357464 C109.774039,69.5259589 109.591659,74.4165468 109.591659,74.4165468 C109.591659,74.4165468 113.893829,67.2622368 114.992749,67.1712598 C116.090896,67.0810473 118.471116,74.1443802 117.464159,76.6802689 C116.457202,79.2161576 111.871415,81.6526596 110.590115,82.6488197 C109.308814,83.6449797 106.104791,87.4484305 106.104791,87.4484305 L102.726115,83.0196083 Z" id="Path" fill="#FECCA9" fill-rule="nonzero"></path>
                        <polygon id="Path" fill="#FECCA9" fill-rule="nonzero" points="10.9207197 202.713004 6.42038217 207.016645 10.547416 212.318386 16.0509554 207.414564"></polygon>
                        <polygon id="矩形" fill="#FECCA9" transform="translate(29.054060, 187.054184) rotate(37.000000) translate(-29.054060, -187.054184) " points="22.2916859 166.262437 34.6180353 162.479663 35.5686584 186.122558 35.8164348 192.852608 30.6720582 211.628705 24.0148218 210.93981 27.1358831 190.676184"></polygon>
                        <polygon id="矩形" fill="#FECCA9" points="54.5732484 170.029823 67.8879472 168.560538 68.4840764 187.869927 67.8879472 194.962359 64.916462 215.520179 57.8978165 215.520179 59.4793705 193.792065"></polygon>
                        <polygon id="Rectangle" fill="#FECCA9" fill-rule="nonzero" points="58.092379 215.520179 65.2738854 215.520179 64.2081741 225.125561 57.7834395 223.807625"></polygon>
                        <path d="M108.076433,85.7054278 L102.993,81.044843 C102.993,81.044843 82.4806932,100.091525 76.2758096,101.585151 C70.0709261,103.078776 59.1651567,97.4770891 55.5928644,100.651142 C51.2150008,104.540874 51.8324733,122.48251 51.8324733,126.793925 C51.8324733,136.302684 47.1107651,138.668583 47.0828025,140.958725 C51.2193916,144.319579 68.8688536,143.776388 72.4169384,144.013453 C71.8093241,141.157754 70.0810833,136.984954 70.2160066,132.020915 C70.3509299,127.056088 77.3034219,125.236575 77.5796178,121.61404 C77.8558137,117.991505 76.5908952,116.176966 74.8503849,114.074856 C83.2926139,108.849925 98.309575,98.5009517 108.076433,85.7054278 Z" id="Path" fill="#53A4FC" fill-rule="nonzero"></path>
                        <path d="M54.9699793,134.758256 C53.199358,139.962231 50.7803719,138.642943 47.0828025,140.811659 C49.4325613,135.486588 51.9252558,133.136043 51.9252558,126.678647 C51.9252558,125.329293 51.866937,122.63845 51.917156,119.466368 C53.3070856,121.546228 57.1958108,128.188413 54.9699793,134.758256 Z" id="Path" fill="#096DD9" fill-rule="nonzero"></path>
                        <path d="M68.7136395,79.4975992 C69.9194983,80.0132368 71.0782138,69.3306547 62.6659502,67.9141433 C53.8319954,66.8310306 44.5876199,65.4519846 42.8307432,75.6100711 C42.3401853,78.6434776 37.4629142,81.3317642 40.112836,84.3867556 C42.7627578,87.441747 41.1590272,88.2018452 38.0008855,91.3517199 C34.8427437,94.5015947 38.918107,100.528759 34.5413233,103.205841 C30.4724106,105.154323 35.0802058,110.99296 32.8591275,112.816485 C19.2326015,127.731605 57.7306733,124.256043 64.3408563,112.078944 C66.1460167,105.191013 56.7972523,103.331809 59.6584036,95.5163054 C62.7441713,87.5054474 59.4860463,90.6746805 57.5044458,86.0462627 C56.4641222,82.7752529 60.7683649,83.9760179 62.6659502,85.2813115 C60.3276471,80.0273028 65.2383882,79.4975992 68.7136395,79.4975992 Z" id="Path" fill="#0A2A55" fill-rule="nonzero"></path>
                        <path d="M3.93545373,209.078655 C4.57226217,207.763485 10.3725586,205.901363 10.7475167,206.692757 C13.2947271,212.068949 16.2609502,228.554455 14.5498051,229.391208 C12.8386599,230.227961 3.29681038,210.397614 3.93545373,209.078655 Z" id="路径备份" fill="#001529" transform="translate(9.480602, 217.960157) rotate(-22.000000) translate(-9.480602, -217.960157) "></path>
                        <path d="M60.9148572,219.567554 C61.546182,218.243183 66.6452914,216.375883 67.0180633,217.173272 C69.5504227,222.590192 73.1641377,239.192769 71.4659314,240.034586 C69.7677252,240.876403 60.2817134,220.89574 60.9148572,219.567554 Z" id="路径" fill="#001529" transform="translate(66.394256, 228.521115) rotate(-63.000000) translate(-66.394256, -228.521115) "></path>
                        <path d="M47.7497833,139.744395 C39.8590425,148.471085 33.5847613,156.000953 28.9269398,162.334 C27.3129414,169.053918 81.7049135,178.842239 82.3626362,176.831673 C83.0203588,174.821106 73.4142459,141.594622 72.6220867,142.100942 C71.5865016,141.921786 63.2957338,141.13627 47.7497833,139.744395 Z" id="路径-2" fill="#3E65A3"></path>
                        <path d="M49.2229299,145.080717 C36.6602901,155.223827 29.8988678,161.094415 28.9386628,162.692483 C28.5262854,164.0927 30.8308431,165.692964 35.852336,167.493274 L49.2229299,145.080717 Z" id="路径-5" fill="#143E81"></path>
                        <polygon id="路径-5备份" fill="#143E81" transform="translate(48.297836, 159.478886) rotate(-16.000000) translate(-48.297836, -159.478886) " points="57.9117524 148.674765 38.6839187 167.492847 43.1171797 170.283008"></polygon>
                        <polygon id="路径-5备份-2" fill="#143E81" transform="translate(56.842793, 161.634911) rotate(-16.000000) translate(-56.842793, -161.634911) " points="64.4700871 149.538163 49.2154985 171.023592 54.1325111 173.731659"></polygon>
                        <polygon id="路径-5备份-3" fill="#143E81" transform="translate(66.052186, 163.933198) rotate(-16.000000) translate(-66.052186, -163.933198) " points="70.6003271 151.267227 61.5040443 174.601096 65.7060869 176.599169"></polygon>
                        <path d="M78.1472409,156.175741 L69.6174271,175.903822 C71.5607668,177.278247 73.1687544,178.351922 74.4413898,179.124847 C74.8323959,178.732312 76.0676796,171.082611 78.1472409,156.175741 Z" id="路径-5备份-4" fill="#143E81" transform="translate(73.882334, 167.650294) rotate(-28.000000) translate(-73.882334, -167.650294) "></path>
                    </g>
                    <g id="man_10_" transform="translate(118.000000, 140.000000)">
                        <path d="M43.6077778,40.3543491 C44.8057037,42.922694 44.2182963,44.32125 44.512,45.403569 C44.8057037,46.4858879 45.9304444,48.6716724 45.9785926,49.7078534 C46.0257778,50.7440345 44.9231852,50.8853319 44.6853333,52.2406336 C44.4474815,53.5949741 45.0724444,55.35975 44.2452593,56.7794526 C43.4180741,58.1991552 40.2065926,57.8713836 40.3953333,59.2411034 C40.585037,60.6108233 42.6082222,65.6956078 42.6082222,65.6956078 L29.4031111,65.9070733 C29.4031111,65.9070733 29.9298519,58.5057802 29.2586667,55.4462586 C28.5874815,52.3867371 27.0987407,41.148306 29.8402963,39.7853147 C32.5818519,38.4223233 42.3366667,37.6274052 43.6077778,40.3543491 Z" id="Path" fill="#FECCA9" fill-rule="nonzero"></path>
                        <path d="M33.3893866,32.5391509 C22.4039051,32.8813406 21.5183704,37.63125 21.6435556,46.2004095 C21.7186667,51.3073017 24.5420741,58.3769784 28.2485185,58.3531908 C30.9217037,58.3356466 36.191037,58.0395948 37.1145185,56.581444 C39.3062222,53.1210991 37.4294074,48.3439009 38.8979259,46.695431 C40.9856296,44.3520086 45.7291852,45.5583233 45.0772593,37.4851466 C44.7048264,24.7083655 44.3748681,32.1969612 33.3893866,32.5391509 Z" id="Path" fill="#0A2A55" fill-rule="nonzero"></path>
                        <polygon id="Path" fill="#FECCA9" fill-rule="nonzero" points="48.2916296 210.944543 48.2916296 215.814017 55.6592593 215.814017 55.6611852 208.872181"></polygon>
                        <polygon id="Path" fill="#FECCA9" fill-rule="nonzero" points="22.8886667 211.148319 22.8886667 216.903065 15.3958519 216.903065 15.3958519 209.839155"></polygon>
                        <path d="M18.5091111,122.429884 C18.5091111,122.429884 16.249037,153.05778 15.833037,161.898961 C15.418,170.740142 15.3948889,209.839155 15.3948889,209.839155 L23.2141481,209.908362 C23.2141481,209.908362 28.7897037,184.693022 28.4892593,170.22878 C30.2880741,164.426935 39.7867407,130.580918 39.9254074,123.673685 C40.0640741,116.766453 21.969037,118.976267 18.5091111,122.429884 Z" id="Path" fill="#143E81" fill-rule="nonzero"></path>
                        <path d="M53.3674074,122.429884 C53.3674074,122.429884 56.6077778,153.473022 57.0237778,162.313241 C57.4388148,171.154422 55.8585926,209.839155 55.8585926,209.839155 L47.7687407,210.387043 C47.7687407,210.387043 43.7031111,189.389478 43.3535556,170.022121 C41.5547407,164.220276 30.4517778,130.126267 30.3131111,123.219034 C30.1744444,116.312763 49.9074815,118.976267 53.3674074,122.429884 Z" id="Path" fill="#3E65A3" fill-rule="nonzero"></path>
                        <path d="M16.4753333,85.269625 C16.4753333,85.269625 10.3335556,92.8785388 11.5796296,98.8880043 C12.8247407,104.89747 20.5236296,117.076922 22.3917778,119.770224 C24.2599259,122.463526 19.3102963,125.365409 19.3102963,125.365409 C19.3102963,125.365409 3.54177778,104.920539 1.05059259,98.7044138 C-1.44059259,92.4882888 9.72881481,76.2563879 9.72881481,76.2563879 L16.4753333,85.269625 Z" id="Path" fill="#FECCA9" fill-rule="nonzero"></path>
                        <path d="M56.1494074,59.6102069 C56.1494074,59.6102069 63.0625185,58.7528103 66.8421481,47.025125 C70.6217778,35.2974397 71.7214815,19.5499871 70.3454074,16.0742629 C68.1652593,10.569431 70.511037,5.156875 71.1234815,2.89707759 C71.5885926,1.18324569 72.9694815,-1.17267241 73.3546667,0.673806034 C73.5857778,1.78207759 73.4085926,4.65608621 72.9742963,6.773625 C72.5871852,8.65855172 78.5103704,8.84598707 77.6793333,11.7469095 C76.8492593,14.6478319 76.0182222,14.4613578 75.8805185,16.5221853 C75.7428148,18.5830129 76.8492593,42.0672198 75.3268148,47.5922371 C73.8043704,53.1182155 67.9919259,67.4844138 63.7019259,70.1094698 C59.4119259,72.7345259 56.1494074,59.6102069 56.1494074,59.6102069 Z" id="Path" fill="#FECCA9" fill-rule="nonzero"></path>
                        <path d="M38.376,64.0307974 C35.1587407,63.9971552 21.5607407,62.9946164 14.8142222,69.2107414 C8.0677037,75.4268664 5.68051852,80.1925302 5.26548148,81.4363319 C4.85044444,82.6801336 13.5691111,89.4143491 15.3332593,88.0667371 C17.0974074,86.7200862 17.1200315,84.6640655 19.1961797,84.6640655 C21.2723278,84.6640655 21.0177373,95.0090539 20.1876632,100.810899 C19.3575891,106.612744 14.8151852,123.500668 18.3444444,125.053978 C21.8737037,126.607289 30.9495862,124.018759 36.2429936,125.365409 C41.536401,126.71206 50.4168889,128.265371 53.3231111,124.950168 C56.2293333,121.634966 53.4271111,108.891765 53.3231111,100.810899 C53.2191111,92.7300323 53.0358232,79.4677802 57.9141935,76.2563879 C62.7925639,73.0449957 67.0241481,72.8364138 67.2311852,69.831681 C67.4391852,66.8269483 58.7195556,57.2956207 56.6443704,58.3318017 C54.5682222,59.3679828 50.8011111,63.7193664 46.8885926,63.8231767 C42.9760741,63.9269871 40.6601481,64.0548276 38.376,64.0307974 Z" id="Path" fill="#F7A959" fill-rule="nonzero"></path>
                        <path d="M57.6708889,210.200569 C57.043037,212.144129 54.652963,211.840388 53.1382222,212.156625 C51.6234815,212.472862 46.3454815,213.206263 46.1548148,211.768297 C45.9641481,210.330332 46.7075556,209.279733 46.6093333,208.179151 C46.5111111,207.078569 45.2997037,205.678091 46.5245926,204.851453 C47.7494815,204.024815 49.7871111,204.797625 51.2681481,204.837996 C52.3505185,204.867793 56.3448889,203.169341 56.8302222,203.851797 C57.3155556,204.534254 56.653037,205.841496 56.8205926,206.688319 C57.070963,207.944616 58.1581481,208.692435 57.6708889,210.200569 Z" id="Path" fill="#6388C2" fill-rule="nonzero"></path>
                        <path d="M14.0053333,211.234828 C14.7342963,213.142823 17.1051111,212.714125 18.6342963,212.951543 C20.1634815,213.188961 25.4732593,213.644573 25.5878519,212.198918 C25.7024444,210.753263 24.9060741,209.742073 24.9465185,208.637647 C24.986963,207.53322 26.1232593,206.071224 24.856,205.310909 C23.5887407,204.550595 21.5944444,205.427216 20.1182222,205.545444 C19.0387407,205.631953 14.9605926,204.144004 14.5118519,204.851453 C14.0631111,205.55794 14.793037,206.829616 14.6697778,207.684129 C14.4868148,208.950039 13.4400741,209.753608 14.0053333,211.234828 Z" id="Path" fill="#6388C2" fill-rule="nonzero"></path>
                        <path d="M47.2660741,214.876841 C48.2916296,213.840659 50.0731111,215.498741 51.8873333,215.498741 C53.7015556,215.498741 54.7117037,214.255901 55.6592593,214.186694 C56.6077778,214.117487 57.0921481,216.327302 59.098963,217.341375 C60.2901481,217.943091 63.1125926,218.241065 63.1125926,221.689875 C63.1125926,222.543427 47.7677778,222.327155 47.2660741,222.048405 C46.3108148,221.514935 46.2405185,215.913022 47.2660741,214.876841 Z" id="Path" fill="#0A2A55" fill-rule="nonzero"></path>
                        <path d="M14.4665926,214.876841 C15.4921481,213.840659 17.2736296,215.498741 19.0878519,215.498741 C20.9020741,215.498741 21.9122222,214.255901 22.8597778,214.186694 C23.8082963,214.117487 24.2926667,216.327302 26.2994815,217.341375 C27.4906667,217.943091 30.3131111,218.241065 30.3131111,221.689875 C30.3131111,222.543427 14.9682963,222.327155 14.4665926,222.048405 C13.5103704,221.514935 13.441037,215.913022 14.4665926,214.876841 Z" id="Path" fill="#0A2A55" fill-rule="nonzero"></path>
                        <path d="M40.5579495,58.7108366 C40.0007382,58.0012457 38.5624196,57.5325037 36.2429936,57.3046107 L41.1374791,61.7902837 C40.4304187,59.9547312 40.2372422,58.9282488 40.5579495,58.7108366 Z" id="路径-10" fill="#F09A5E"></path>
                    </g>
                    <g id="plant_3_" transform="translate(201.000000, 351.000000)" fill-rule="nonzero">
                        <path d="M59.0796774,63.9210792 L0.738387097,63.9210792 C0.738387097,63.9210792 0.217741935,96.4996337 29.9090323,96.4996337 C59.6003226,96.4996337 59.0796774,63.9210792 59.0796774,63.9210792 Z" id="Path" fill="#FBDFCB"></path>
                        <ellipse id="Oval" fill="#E8ECFC" cx="29.9090323" cy="63.9210792" rx="29.1706452" ry="9.30527723"></ellipse>
                        <path d="M29.9090323,67.2757426 C29.9090323,67.2757426 7.73516129,31.1773366 15.9725806,0.547425743 C15.9725806,0.547425743 31.4496774,28.6466931 29.9090323,67.2757426 Z" id="Path" fill="#55CEB3"></path>
                        <path d="M29.9090323,67.2757426 C29.9090323,67.2757426 31.8658065,25.0432871 55.9548387,4.22190099 C55.953871,4.22094059 52.9529032,36.1060891 29.9090323,67.2757426 Z" id="Path" fill="#55CEB3"></path>
                        <path d="M29.9090323,71.2508218 C29.9090323,71.2508218 20.0603226,30.1189802 37.4322581,3.51408911 C37.4322581,3.5150495 43.4022581,34.9853069 29.9090323,71.2508218 Z" id="Path" fill="#39B499"></path>
                    </g>
                </g>
            </g>
        </g>
    </g>
</svg>